<svg xmlns="http://www.w3.org/2000/svg" xmlns:xlink="http://www.w3.org/1999/xlink" viewBox="0 0 100 272.22"><defs><style>.cls-1{fill:none;}.cls-2{clip-path:url(#clip-path);}.cls-3{fill:url(#linear-gradient);}.cls-4{clip-path:url(#clip-path-2);}.cls-5{fill:url(#linear-gradient-2);}</style><clipPath id="clip-path"><path class="cls-1" d="M94.44,27.78a5.56,5.56,0,1,0-5.56-5.56A5.56,5.56,0,0,0,94.44,27.78ZM5.56,22.22A5.56,5.56,0,1,0,0,16.67,5.56,5.56,0,0,0,5.56,22.22ZM94.44,38.89a5.56,5.56,0,0,0-5.56,5.56V61.11a5.56,5.56,0,1,1-11.11,0V33.33a5.56,5.56,0,1,0-11.11,0V50a5.56,5.56,0,0,1-11.11,0V5.56a5.56,5.56,0,1,0-11.11,0V38.89a5.56,5.56,0,0,1-11.11,0V16.67a5.56,5.56,0,1,0-11.11,0V50a5.56,5.56,0,0,1-11.11,0V38.89A5.56,5.56,0,1,0,0,38.89v183a.35.35,0,0,0,0,0c0,.1,0,.21,0,.31a50,50,0,0,0,100,0V44.44A5.56,5.56,0,0,0,94.44,38.89ZM16.67,66.67a5.56,5.56,0,1,1-5.56,5.56A5.56,5.56,0,0,1,16.67,66.67ZM88.89,222.22a38.89,38.89,0,0,1-77.78,0V100a5.56,5.56,0,1,1,11.11,0v16.67a5.56,5.56,0,1,0,11.11,0V72.22a5.56,5.56,0,0,1,11.11,0v33.33a5.56,5.56,0,1,0,11.11,0V83.33a5.56,5.56,0,0,1,11.11,0v33.33a5.56,5.56,0,1,0,11.11,0V105.56a5.56,5.56,0,0,1,11.11,0ZM83.33,88.89a5.56,5.56,0,1,1,5.56-5.56A5.56,5.56,0,0,1,83.33,88.89Z"/></clipPath><linearGradient id="linear-gradient" x1="50" y1="272.22" x2="50" y2="0.22" gradientUnits="userSpaceOnUse"><stop offset="0" stop-color="#f77062"/><stop offset="1" stop-color="#fa709a"/></linearGradient><clipPath id="clip-path-2"><path class="cls-1" d="M76.15,157.18a5.52,5.52,0,0,1,1.63,3.93v61.11a27.78,27.78,0,0,1-55.56,0V150a5.56,5.56,0,1,1,11.11,0v22.22a5.55,5.55,0,1,0,11.11,0V127.78a5.56,5.56,0,0,1,11.12,0v33.33a5.55,5.55,0,0,0,11.11,0,5.55,5.55,0,0,1,9.48-3.93Zm-3.93-12.74a5.55,5.55,0,1,0-3.93-1.63A5.52,5.52,0,0,0,72.22,144.44Z"/></clipPath><linearGradient id="linear-gradient-2" x1="50" y1="272.22" x2="50" y2="0.22" gradientUnits="userSpaceOnUse"><stop offset="0" stop-color="#4facfe"/><stop offset="1" stop-color="#00f2fe"/></linearGradient></defs><title>comet-gradient</title><g id="gradient"><g class="cls-2"><rect class="cls-3" y="0.22" width="100" height="272"/></g><g class="cls-4"><rect class="cls-5" y="0.22" width="100" height="272"/></g></g></svg>