<svg id="normal" xmlns="http://www.w3.org/2000/svg" viewBox="0 0 100 272.22"><defs><style>.cls-1{fill:#e15e53;}.cls-2{fill:#728fd7;}</style></defs><title>comet-normal</title><g id="outer"><path class="cls-1" d="M5.56,22.22A5.56,5.56,0,1,0,0,16.67,5.56,5.56,0,0,0,5.56,22.22Zm88.89,5.56a5.56,5.56,0,1,0-5.56-5.56A5.56,5.56,0,0,0,94.44,27.78Zm0,11.11a5.56,5.56,0,0,0-5.56,5.56V61.11a5.56,5.56,0,1,1-11.11,0V33.33a5.56,5.56,0,1,0-11.11,0V50a5.56,5.56,0,0,1-5.56,5.56h0A5.56,5.56,0,0,1,55.56,50V5.56a5.56,5.56,0,0,0-11.11,0V38.89a5.56,5.56,0,0,1-5.56,5.56h0a5.56,5.56,0,0,1-5.56-5.56V16.67a5.56,5.56,0,0,0-11.11,0V50a5.56,5.56,0,0,1-11.11,0V38.89A5.56,5.56,0,1,0,0,38.89v183a.32.32,0,0,0,0,0c0,.1,0,.21,0,.31a50,50,0,1,0,100,0V44.44A5.56,5.56,0,0,0,94.44,38.89ZM16.67,66.67a5.56,5.56,0,1,1-5.56,5.56A5.56,5.56,0,0,1,16.67,66.67ZM88.89,222.22a38.89,38.89,0,0,1-77.78,0V100a5.56,5.56,0,0,1,11.11,0v16.67a5.56,5.56,0,1,0,11.11,0V72.22a5.56,5.56,0,0,1,5.56-5.56h0a5.56,5.56,0,0,1,5.56,5.56v33.33a5.56,5.56,0,1,0,11.11,0V83.33a5.56,5.56,0,0,1,5.56-5.56h0a5.56,5.56,0,0,1,5.56,5.56v33.33a5.56,5.56,0,1,0,11.11,0V105.56a5.56,5.56,0,0,1,11.11,0ZM83.33,88.89a5.56,5.56,0,1,1,5.56-5.56A5.56,5.56,0,0,1,83.33,88.89Z"/></g><g id="inner"><circle class="cls-2" cx="50" cy="222.22" r="27.78"/><path class="cls-2" d="M77.78,161.11v61.11H22.22V150a5.56,5.56,0,0,1,5.56-5.56h0A5.56,5.56,0,0,1,33.33,150v22.22a5.56,5.56,0,0,0,5.56,5.56h0a5.56,5.56,0,0,0,5.56-5.56V127.78A5.56,5.56,0,0,1,50,122.22h0a5.56,5.56,0,0,1,5.56,5.56v33.33a5.56,5.56,0,0,0,5.56,5.56h0a5.56,5.56,0,0,0,5.56-5.56h0a5.56,5.56,0,0,1,5.56-5.56h0A5.56,5.56,0,0,1,77.78,161.11Z"/><rect class="cls-2" x="66.67" y="133.33" width="11.11" height="11.11" rx="5.56" ry="5.56"/></g></svg>